<svg xmlns="http://www.w3.org/2000/svg" viewBox="0 0 512 512">
	<path fill="#ec4899" id="S" d="M253.1,464.7c-21.1,0-41.6-1.7-61.6-5.2s-38.2-8.5-54.7-15.3c-16.5-6.7-31.3-14.7-44.4-23.9l25.9-69.6
		c12.3,8.1,25.5,15,39.7,21c14.2,5.9,29.4,10.6,45.5,13.8c16.1,3.3,32.6,4.9,49.5,4.9c27.6,0,47.6-4.2,59.9-12.6
		c12.3-8.4,18.4-19.2,18.4-32.2c0-7.7-1.9-14.1-5.8-19.3c-3.8-5.2-10-9.7-18.4-13.5c-8.4-3.8-19.6-7.1-33.4-9.8l-65-13.8
		c-36.9-8.1-64.1-21.4-81.7-40c-17.7-18.6-26.5-43.1-26.5-73.4c0-25.7,6.9-48.3,20.8-67.6c13.8-19.3,33.1-34.3,57.9-44.9
		c24.7-10.5,53.4-15.8,86.1-15.8c18.4,0,36.3,1.7,53.5,5.2C336,55.9,352,61.1,366.8,68c14.8,6.9,27.3,15,37.7,24.2L378.6,159
		c-15.4-12.7-32.7-22.1-52.1-28.2c-19.3-6.1-40.2-9.2-62.4-9.2c-16.1,0-29.8,2.1-41.1,6.3c-11.3,4.2-19.9,10.1-25.6,17.6
		c-5.8,7.5-8.6,16.4-8.6,26.8c0,10.8,3.9,19.6,11.8,26.5c7.9,6.9,21.8,12.5,41.7,16.7l64.5,13.8c38,8.1,66.3,21,84.9,38.8
		c18.6,17.8,27.9,41.4,27.9,70.6c0,24.9-6.9,47-20.7,66.2c-13.8,19.2-33.1,34-57.9,44.3C316.2,459.5,286.9,464.7,253.1,464.7z" />
</svg>
