<svg xmlns="http://www.w3.org/2000/svg" viewBox="0 0 502 93">
	<path d="M33.5,76.8c-3.7,0-7.3-0.3-10.8-0.9c-3.5-0.6-6.7-1.5-9.6-2.7c-2.9-1.2-5.5-2.6-7.8-4.2L10,56.9c2.1,1.4,4.5,2.6,6.9,3.7
			c2.5,1,5.1,1.8,8,2.4c2.8,0.6,5.7,0.9,8.7,0.9c4.8,0,8.3-0.7,10.5-2.2c2.1-1.5,3.2-3.4,3.2-5.6c0-1.3-0.3-2.5-1-3.4
			c-0.7-0.9-1.7-1.7-3.2-2.4c-1.5-0.7-3.4-1.2-5.8-1.7l-11.4-2.4c-6.4-1.4-11.2-3.7-14.3-7c-3.1-3.3-4.6-7.5-4.6-12.8
			c0-4.5,1.2-8.4,3.6-11.8c2.4-3.4,5.8-6,10.1-7.9c4.3-1.8,9.3-2.8,15-2.8c3.2,0,6.3,0.3,9.4,0.9c3,0.6,5.8,1.5,8.4,2.7
			c2.6,1.2,4.8,2.6,6.6,4.2l-4.5,11.7c-2.7-2.2-5.7-3.9-9.1-4.9c-3.4-1.1-7-1.6-10.9-1.6c-2.8,0-5.2,0.4-7.2,1.1
			c-2,0.7-3.5,1.8-4.5,3.1c-1,1.3-1.5,2.9-1.5,4.7c0,1.9,0.7,3.4,2.1,4.6c1.4,1.2,3.8,2.2,7.3,2.9l11.3,2.4
			c6.6,1.4,11.6,3.7,14.8,6.8c3.3,3.1,4.9,7.2,4.9,12.3c0,4.4-1.2,8.2-3.6,11.6c-2.4,3.4-5.8,5.9-10.1,7.8S39.4,76.8,33.5,76.8z" />
	<path d="M90.1,76.8c-5.3,0-9.9-1-13.8-3.1c-3.9-2.1-6.9-5-9.1-8.9c-2.2-3.9-3.3-8.4-3.3-13.7c0-5.2,1.1-9.8,3.3-13.6
			c2.2-3.9,5.2-6.8,9.1-8.9c3.9-2.1,8.5-3.1,13.8-3.1c5.3,0,9.9,1,13.8,3.1c3.9,2.1,7,5,9.2,8.9c2.2,3.9,3.3,8.4,3.3,13.6
			c0,5.3-1.1,9.9-3.3,13.7c-2.2,3.9-5.2,6.8-9.2,8.9C100,75.8,95.4,76.8,90.1,76.8z M90.1,65.5c3.3,0,5.9-1.2,8-3.5c2-2.3,3-6,3-11
			c0-4.9-1-8.5-3-10.8c-2-2.3-4.7-3.5-8-3.5c-3.2,0-5.8,1.2-7.9,3.5c-2,2.3-3,5.9-3,10.8c0,5,1,8.6,3,11
			C84.2,64.4,86.8,65.5,90.1,65.5z" />
	<path d="M144.2,76.8c-5.3,0-9.9-1-13.8-3.1c-3.9-2.1-6.9-5-9.1-8.9c-2.2-3.9-3.3-8.4-3.3-13.7c0-5.2,1.1-9.8,3.3-13.6
			c2.2-3.9,5.2-6.8,9.1-8.9c3.9-2.1,8.5-3.1,13.8-3.1c5.3,0,9.9,1,13.8,3.1c3.9,2.1,7,5,9.2,8.9c2.2,3.9,3.3,8.4,3.3,13.6
			c0,5.3-1.1,9.9-3.3,13.7c-2.2,3.9-5.2,6.8-9.2,8.9C154.1,75.8,149.5,76.8,144.2,76.8z M144.2,65.5c3.3,0,5.9-1.2,8-3.5
			c2-2.3,3-6,3-11c0-4.9-1-8.5-3-10.8c-2-2.3-4.7-3.5-8-3.5c-3.2,0-5.8,1.2-7.9,3.5c-2,2.3-3,5.9-3,10.8c0,5,1,8.6,3,11
			C138.4,64.4,141,65.5,144.2,65.5z" />
	<path d="M174.6,93.9V26.5h14.9v9.7h-1c1-3.3,3-5.9,6.1-7.9c3.1-1.9,6.6-2.9,10.5-2.9c4.3,0,8.1,1,11.4,3.1c3.3,2.1,5.8,5,7.6,8.9
			c1.8,3.8,2.7,8.4,2.7,13.7c0,5.3-0.9,9.9-2.7,13.8c-1.8,3.9-4.3,6.9-7.5,8.9c-3.2,2-7,3.1-11.4,3.1c-3.9,0-7.3-0.9-10.4-2.8
			c-3-1.9-5-4.3-6-7.3h1.1v27.3H174.6z M200.6,65.5c3.2,0,5.8-1.2,7.9-3.5c2-2.3,3-6,3-11c0-4.9-1-8.5-3-10.8
			c-2-2.3-4.6-3.5-7.9-3.5c-3.2,0-5.8,1.2-7.9,3.5c-2,2.3-3,5.9-3,10.8c0,5,1,8.6,3,11C194.7,64.4,197.4,65.5,200.6,65.5z" />
	<path d="M247.8,76.8c-3.8,0-7-0.7-9.9-2.1c-2.8-1.4-5-3.3-6.6-5.6c-1.6-2.4-2.4-5.1-2.4-8.2c0-3.6,0.9-6.5,2.8-8.6
			c1.9-2.1,4.9-3.6,9.1-4.5c4.2-0.9,9.8-1.4,16.8-1.4h5.3v7.9h-5.2c-2.6,0-4.7,0.1-6.5,0.3c-1.8,0.2-3.3,0.6-4.4,1.1
			c-1.1,0.5-2,1.1-2.5,1.9c-0.5,0.8-0.8,1.7-0.8,2.8c0,1.8,0.7,3.3,2,4.5c1.3,1.2,3.2,1.8,5.6,1.8c1.9,0,3.7-0.4,5.2-1.3
			c1.5-0.9,2.8-2.1,3.6-3.6c0.9-1.5,1.3-3.4,1.3-5.5V44.7c0-3-0.7-5-2-6.3c-1.3-1.2-3.7-1.9-6.9-1.9c-2.6,0-5.4,0.4-8.4,1.2
			c-3,0.8-5.9,2.1-8.8,3.8l-4.1-10.1c1.7-1.2,3.8-2.3,6.3-3.2c2.4-0.9,5.1-1.7,7.9-2.2c2.8-0.5,5.4-0.8,7.8-0.8
			c5.2,0,9.4,0.8,12.8,2.3c3.4,1.5,5.9,3.8,7.5,7c1.6,3.2,2.5,7.1,2.5,12v29.2h-14.2v-9.9h0.7c-0.4,2.2-1.3,4.1-2.6,5.7
			s-3,2.9-4.9,3.8C252.7,76.4,250.4,76.8,247.8,76.8z" />
	<path d="M283.4,75.8v-71H295l38.1,48.6h-2.8V4.9h14.6v71h-11.6l-38.1-48.7h2.7v48.7H283.4z" />
	<path d="M376.6,76.8c-5.3,0-9.9-1-13.8-3.1c-3.9-2.1-6.9-5-9.1-8.9c-2.2-3.9-3.3-8.4-3.3-13.7c0-5.2,1.1-9.8,3.3-13.6
			c2.2-3.9,5.2-6.8,9.1-8.9c3.9-2.1,8.5-3.1,13.8-3.1c5.3,0,9.9,1,13.8,3.1c3.9,2.1,7,5,9.2,8.9c2.2,3.9,3.3,8.4,3.3,13.6
			c0,5.3-1.1,9.9-3.3,13.7c-2.2,3.9-5.2,6.8-9.2,8.9C386.5,75.8,381.9,76.8,376.6,76.8z M376.6,65.5c3.3,0,5.9-1.2,8-3.5
			c2-2.3,3-6,3-11c0-4.9-1-8.5-3-10.8c-2-2.3-4.7-3.5-8-3.5c-3.2,0-5.8,1.2-7.9,3.5c-2,2.3-3,5.9-3,10.8c0,5,1,8.6,3,11
			C370.8,64.4,373.4,65.5,376.6,65.5z" />
	<path d="M421.6,75.8l-21.5-49.3h16l14,35.3h-3.2l14.4-35.3h15l-21.8,49.3H421.6z" />
	<path d="M472.5,76.8c-3.8,0-7-0.7-9.9-2.1c-2.8-1.4-5-3.3-6.6-5.6c-1.6-2.4-2.4-5.1-2.4-8.2c0-3.6,0.9-6.5,2.8-8.6
			c1.9-2.1,4.9-3.6,9.1-4.5c4.2-0.9,9.8-1.4,16.8-1.4h5.3v7.9h-5.2c-2.6,0-4.7,0.1-6.5,0.3s-3.3,0.6-4.4,1.1c-1.1,0.5-2,1.1-2.5,1.9
			c-0.5,0.8-0.8,1.7-0.8,2.8c0,1.8,0.7,3.3,2,4.5s3.2,1.8,5.6,1.8c1.9,0,3.7-0.4,5.2-1.3c1.5-0.9,2.8-2.1,3.6-3.6
			c0.9-1.5,1.3-3.4,1.3-5.5V44.7c0-3-0.7-5-2-6.3c-1.3-1.2-3.7-1.9-6.9-1.9c-2.6,0-5.4,0.4-8.4,1.2c-3,0.8-5.9,2.1-8.8,3.8
			l-4.1-10.1c1.7-1.2,3.8-2.3,6.3-3.2c2.4-0.9,5.1-1.7,7.9-2.2c2.8-0.5,5.4-0.8,7.8-0.8c5.2,0,9.4,0.8,12.8,2.3
			c3.4,1.5,5.9,3.8,7.5,7c1.6,3.2,2.5,7.1,2.5,12v29.2h-14.2v-9.9h0.7c-0.4,2.2-1.3,4.1-2.6,5.7c-1.3,1.6-3,2.9-4.9,3.8
			C477.4,76.4,475.1,76.8,472.5,76.8z" />
</svg>
