<svg xmlns="http://www.w3.org/2000/svg" viewBox="0 0 502 93">
	<path d="M458.9,72.4c-2.6-1.3-4.7-3.2-6.2-5.6c-1.5-2.4-2.2-5.1-2.2-8.1v0c0-3.3,0.8-6,2.5-8.3c1.6-2.3,4-4.1,7.1-5.4
			c3.1-1.3,6.9-2.1,11.3-2.4l20.7-1.3v9.8l-18,1.2c-2.3,0.1-4.1,0.7-5.3,1.6c-1.2,0.9-1.8,2.2-1.8,3.7v0c0,1.6,0.6,2.9,1.9,3.7
			c1.3,0.9,2.9,1.3,5,1.3c1.8,0,3.4-0.3,4.8-1c1.4-0.6,2.5-1.6,3.3-2.7c0.8-1.2,1.2-2.5,1.2-3.9V39.3c0-1.9-0.6-3.4-1.8-4.4
			c-1.2-1.1-3-1.6-5.3-1.6c-2.3,0-4.1,0.5-5.4,1.4s-2.1,2-2.4,3.4l-0.1,0.5h-15.2l0-0.6c0.3-3.4,1.4-6.4,3.3-8.9
			c1.9-2.5,4.6-4.5,8.1-5.9c3.5-1.4,7.6-2.1,12.4-2.1c4.6,0,8.7,0.7,12.2,2.2c3.5,1.5,6.2,3.5,8.1,6.1c1.9,2.6,2.9,5.7,2.9,9.2v35.4
			h-16.9v-7.3h-0.3c-1,1.7-2.2,3.1-3.7,4.3c-1.5,1.2-3.1,2.1-5,2.8c-1.9,0.6-3.9,1-6.2,1C464.6,74.4,461.6,73.8,458.9,72.4z" />
	<path d="M399,21.9h18.1l9,37.7h0.3l8.8-37.7H453l-17.1,51.8h-19.6L399,21.9z" />
	<path d="M360.8,71.6c-4-2.1-7-5.2-9.2-9.2c-2.1-4-3.2-8.9-3.2-14.6v-0.1c0-5.6,1.1-10.4,3.3-14.4c2.2-4,5.3-7.1,9.2-9.3
			c4-2.1,8.6-3.2,14-3.2c5.4,0,10.1,1.1,14,3.2s7,5.2,9.2,9.2c2.2,4,3.3,8.8,3.3,14.5v0.1c0,5.7-1.1,10.6-3.2,14.6
			c-2.2,4-5.2,7.1-9.2,9.2c-3.9,2.1-8.7,3.2-14.2,3.2C369.4,74.8,364.7,73.7,360.8,71.6z M379.9,60.4c1.4-1.1,2.5-2.7,3.2-4.8
			c0.7-2.1,1.1-4.7,1.1-7.7v-0.1c0-3-0.4-5.5-1.2-7.6c-0.8-2.1-1.9-3.7-3.3-4.8c-1.4-1.1-3-1.7-4.9-1.7c-1.9,0-3.5,0.6-4.9,1.7
			c-1.4,1.1-2.5,2.7-3.3,4.8c-0.8,2.1-1.2,4.7-1.2,7.6v0.1c0,3,0.4,5.6,1.1,7.7c0.8,2.1,1.8,3.7,3.3,4.8c1.4,1.1,3.1,1.6,5,1.6
			C376.9,62,378.5,61.5,379.9,60.4z" />
	<path d="M283.8,5.1h14.8L331.9,53l-12.7-8.3h7.2V5.1h17.4v68.7h-14.7l-33.3-48.3l12.6,8.3h-7.2v40h-17.5V5.1z" />
	<path d="M236.5,72.4c-2.6-1.3-4.7-3.2-6.2-5.6c-1.5-2.4-2.2-5.1-2.2-8.1v0c0-3.3,0.8-6,2.5-8.3c1.6-2.3,4-4.1,7.1-5.4
			c3.1-1.3,6.9-2.1,11.3-2.4l20.7-1.3v9.8l-18,1.2c-2.3,0.1-4.1,0.7-5.3,1.6c-1.2,0.9-1.8,2.2-1.8,3.7v0c0,1.6,0.6,2.9,1.9,3.7
			c1.3,0.9,2.9,1.3,5,1.3c1.8,0,3.4-0.3,4.8-1c1.4-0.6,2.5-1.6,3.3-2.7c0.8-1.2,1.2-2.5,1.2-3.9V39.3c0-1.9-0.6-3.4-1.8-4.4
			c-1.2-1.1-3-1.6-5.3-1.6c-2.3,0-4.1,0.5-5.4,1.4c-1.3,0.9-2.1,2-2.4,3.4l-0.1,0.5h-15.2l0-0.6c0.3-3.4,1.4-6.4,3.3-8.9
			c1.9-2.5,4.6-4.5,8.1-5.9c3.5-1.4,7.6-2.1,12.4-2.1c4.6,0,8.7,0.7,12.2,2.2c3.5,1.5,6.2,3.5,8.1,6.1c1.9,2.6,2.9,5.7,2.9,9.2v35.4
			h-16.9v-7.3h-0.3c-1,1.7-2.2,3.1-3.7,4.3c-1.5,1.2-3.1,2.1-5,2.8c-1.9,0.6-3.9,1-6.2,1C242.2,74.4,239.2,73.8,236.5,72.4z" />
	<path d="M173.2,21.9H190v9.2h0.4c0.9-2.2,2.1-4,3.6-5.5c1.5-1.5,3.2-2.7,5.3-3.5c2-0.8,4.2-1.2,6.7-1.2c4.4,0,8.1,1.1,11.2,3.2
			c3.1,2.1,5.4,5.2,7.1,9.2c1.6,4,2.5,8.9,2.5,14.6v0c0,5.7-0.8,10.5-2.4,14.6c-1.6,4-3.9,7.1-7,9.2c-3.1,2.1-6.7,3.2-11.1,3.2
			c-2.5,0-4.8-0.4-6.9-1.2c-2.1-0.8-3.8-2-5.4-3.4c-1.5-1.5-2.7-3.3-3.6-5.3H190v25.5h-16.9V21.9z M204.9,59.4
			c1.5-1.1,2.6-2.6,3.4-4.6c0.8-2,1.2-4.3,1.2-7v0c0-2.8-0.4-5.1-1.2-7.1c-0.8-2-1.9-3.5-3.4-4.5c-1.4-1-3.2-1.6-5.2-1.6
			c-1.9,0-3.6,0.5-5.1,1.6c-1.5,1.1-2.6,2.6-3.4,4.5c-0.8,2-1.2,4.3-1.2,7.1v0c0,2.8,0.4,5.1,1.2,7.1c0.8,2,2,3.5,3.4,4.5
			c1.5,1.1,3.2,1.6,5.1,1.6C201.7,61.1,203.5,60.5,204.9,59.4z" />
	<path d="M129.1,71.6c-4-2.1-7-5.2-9.2-9.2c-2.1-4-3.2-8.9-3.2-14.6v-0.1c0-5.6,1.1-10.4,3.3-14.4c2.2-4,5.3-7.1,9.2-9.3
			c4-2.1,8.6-3.2,14-3.2c5.4,0,10.1,1.1,14,3.2c4,2.1,7,5.2,9.2,9.2c2.2,4,3.3,8.8,3.3,14.5v0.1c0,5.7-1.1,10.6-3.2,14.6
			c-2.2,4-5.2,7.1-9.2,9.2c-3.9,2.1-8.7,3.2-14.2,3.2C137.7,74.8,133,73.7,129.1,71.6z M148.2,60.4c1.4-1.1,2.5-2.7,3.2-4.8
			c0.7-2.1,1.1-4.7,1.1-7.7v-0.1c0-3-0.4-5.5-1.2-7.6c-0.8-2.1-1.9-3.7-3.3-4.8c-1.4-1.1-3-1.7-4.9-1.7c-1.9,0-3.5,0.6-4.9,1.7
			c-1.4,1.1-2.5,2.7-3.3,4.8c-0.8,2.1-1.2,4.7-1.2,7.6v0.1c0,3,0.4,5.6,1.1,7.7c0.8,2.1,1.8,3.7,3.3,4.8c1.4,1.1,3.1,1.6,5,1.6
			C145.2,62,146.9,61.5,148.2,60.4z" />
	<path d="M74.2,71.6c-4-2.1-7-5.2-9.2-9.2c-2.1-4-3.2-8.9-3.2-14.6v-0.1c0-5.6,1.1-10.4,3.3-14.4c2.2-4,5.3-7.1,9.2-9.3
			c4-2.1,8.6-3.2,14-3.2c5.4,0,10.1,1.1,14,3.2c4,2.1,7,5.2,9.2,9.2c2.2,4,3.3,8.8,3.3,14.5v0.1c0,5.7-1.1,10.6-3.2,14.6
			c-2.2,4-5.2,7.1-9.2,9.2c-3.9,2.1-8.7,3.2-14.2,3.2C82.9,74.8,78.2,73.7,74.2,71.6z M93.4,60.4c1.4-1.1,2.5-2.7,3.2-4.8
			c0.7-2.1,1.1-4.7,1.1-7.7v-0.1c0-3-0.4-5.5-1.2-7.6c-0.8-2.1-1.9-3.7-3.3-4.8c-1.4-1.1-3-1.7-4.9-1.7c-1.9,0-3.5,0.6-4.9,1.7
			c-1.4,1.1-2.5,2.7-3.3,4.8c-0.8,2.1-1.2,4.7-1.2,7.6v0.1c0,3,0.4,5.6,1.1,7.7c0.8,2.1,1.8,3.7,3.3,4.8c1.4,1.1,3.1,1.6,5,1.6
			C90.3,62,92,61.5,93.4,60.4z" />
	<path d="M15.8,72.5c-4.2-1.6-7.5-4-9.8-7.1c-2.4-3.1-3.7-6.8-4-11.2l0-0.9h16.2l0.1,0.5c0.3,1.5,1.1,2.8,2.2,3.9
			c1.2,1.1,2.6,2,4.4,2.6c1.8,0.6,3.8,0.9,6,0.9c2.3,0,4.3-0.3,6-0.9c1.7-0.6,3-1.5,3.9-2.5c0.9-1.1,1.4-2.3,1.4-3.8v0
			c0-1.9-0.8-3.4-2.5-4.5c-1.7-1.1-4.5-2-8.6-2.7l-7-1.4c-6.8-1.3-12-3.6-15.5-6.9C5,35.2,3.3,30.9,3.3,25.6v0
			c0-4.4,1.2-8.2,3.5-11.5c2.3-3.3,5.6-5.8,9.7-7.6c4.1-1.8,8.8-2.7,14-2.7c5.7,0,10.6,0.8,14.7,2.5c4,1.7,7.1,4.1,9.3,7.2
			c2.2,3.1,3.4,6.7,3.6,10.8l0,1H41.9l0-0.5c-0.2-1.5-0.8-2.8-1.8-3.9c-1-1.1-2.3-1.9-3.9-2.5c-1.6-0.6-3.5-0.9-5.6-0.9
			c-2.1,0-3.9,0.3-5.4,0.9c-1.5,0.6-2.6,1.4-3.4,2.5c-0.8,1-1.2,2.2-1.2,3.5v0c0,1.8,0.8,3.3,2.5,4.4c1.7,1.1,4.4,2,8,2.7l7,1.3
			c4.9,0.9,8.9,2.2,12,3.9c3.1,1.7,5.5,3.8,7,6.4c1.5,2.6,2.3,5.7,2.3,9.4v0c0,4.6-1.1,8.5-3.4,11.9c-2.3,3.4-5.6,6-9.9,7.8
			C41.9,74,36.7,75,30.7,75C25,75,20,74.1,15.8,72.5z" />
</svg>
