<svg xmlns="http://www.w3.org/2000/svg" viewBox="0 0 512 50.4">
	<path d="M5.7,6h27.4v8.2H15.9v9.2h15.6v7.9H15.9v15H5.7V6z" />
	<path d="M34.7,15.9h9.9v5.4h0.2c0.4-1.9,1.2-3.4,2.4-4.5c1.2-1,2.6-1.6,4.5-1.6c0.5,0,0.9,0,1.4,0.1c0.4,0.1,0.8,0.2,1.2,0.3v8.5
				c-0.4-0.2-0.9-0.3-1.4-0.4c-0.5-0.1-1.1-0.1-1.7-0.1c-1.4,0-2.6,0.3-3.5,0.8c-1,0.5-1.7,1.2-2.2,2.2s-0.7,2.2-0.7,3.6v16.2h-9.9
				V15.9z" />
	<path d="M61.3,45.1c-2.3-1.2-4.1-3.1-5.4-5.4S54,34.5,54,31.1v-0.1c0-3.3,0.6-6.1,1.9-8.5s3.1-4.2,5.4-5.4
				c2.3-1.3,5.1-1.9,8.2-1.9c3.2,0,5.9,0.6,8.2,1.9c2.3,1.3,4.1,3.1,5.4,5.4c1.3,2.4,1.9,5.2,1.9,8.5v0.1c0,3.4-0.6,6.2-1.9,8.6
				c-1.3,2.4-3.1,4.2-5.4,5.4c-2.3,1.2-5.1,1.9-8.3,1.9C66.4,47,63.6,46.4,61.3,45.1z M72.5,38.5c0.8-0.6,1.4-1.6,1.9-2.8
				c0.4-1.2,0.7-2.8,0.7-4.5v-0.1c0-1.8-0.2-3.2-0.7-4.5c-0.5-1.2-1.1-2.2-1.9-2.8c-0.8-0.7-1.8-1-2.9-1c-1.1,0-2.1,0.3-2.9,1
				c-0.8,0.7-1.5,1.6-1.9,2.8s-0.7,2.7-0.7,4.5v0.1c0,1.8,0.2,3.3,0.7,4.5c0.4,1.2,1.1,2.2,1.9,2.8c0.8,0.6,1.8,1,2.9,1
				C70.7,39.5,71.7,39.2,72.5,38.5z" />
	<path d="M86.7,15.9h9.9v5.5h0.2c0.6-1.9,1.7-3.3,3.2-4.5c1.5-1.1,3.3-1.7,5.4-1.7c1.5,0,2.7,0.3,3.9,0.8c1.1,0.5,2.1,1.2,2.9,2.2
				c0.8,1,1.3,2.1,1.6,3.5h0.2c0.4-1.3,1-2.5,1.9-3.4c0.9-1,2-1.7,3.3-2.3c1.3-0.5,2.7-0.8,4.2-0.8c2,0,3.7,0.4,5.2,1.3
				s2.7,2.1,3.5,3.6s1.3,3.4,1.3,5.4v20.7h-9.9V28.2c0-1.1-0.2-2-0.5-2.7c-0.3-0.7-0.8-1.3-1.4-1.6s-1.4-0.5-2.4-0.5
				c-0.9,0-1.6,0.2-2.3,0.6c-0.7,0.4-1.2,1-1.5,1.7s-0.5,1.6-0.5,2.6v18.1h-9.5V28.1c0-1-0.2-1.9-0.5-2.6c-0.3-0.7-0.8-1.2-1.4-1.6
				s-1.4-0.5-2.3-0.5c-0.9,0-1.7,0.2-2.3,0.6c-0.7,0.4-1.2,1-1.5,1.7c-0.4,0.7-0.5,1.6-0.5,2.6v18h-9.9V15.9z" />
	<path d="M145.1,6h10.3v40.3h-10.3V6z M150.3,26.8h9.6c2.2,0,3.9-0.5,5.1-1.6c1.2-1.1,1.8-2.7,1.8-4.8v-0.1c0-2.1-0.6-3.7-1.8-4.8
				c-1.2-1.1-2.9-1.6-5.1-1.6h-9.6V6h12c3,0,5.6,0.6,7.8,1.8c2.2,1.2,3.9,2.8,5.2,5c1.2,2.1,1.8,4.6,1.8,7.5v0.1
				c0,2.9-0.6,5.4-1.8,7.5c-1.2,2.1-2.9,3.8-5.2,4.9s-4.8,1.7-7.8,1.7h-12V26.8z" />
	<path d="M180.2,11.2c-1-1-1.5-2.1-1.5-3.4c0-1.3,0.5-2.5,1.5-3.5s2.2-1.4,3.6-1.4c1.4,0,2.6,0.5,3.6,1.4s1.5,2.1,1.5,3.5
				c0,1.3-0.5,2.5-1.5,3.4s-2.2,1.5-3.6,1.5C182.3,12.7,181.1,12.2,180.2,11.2z M178.8,15.9h9.9v30.4h-9.9V15.9z" />
	<path d="M198.4,31.2l-9.1-15.3h11.2l4.5,9.7h0.2l4.5-9.7h10.7L211.4,31l9.1,15.3h-10.7l-5-10h-0.2l-4.9,10h-10.3L198.4,31.2z" />
	<path d="M227.2,45.1c-2.3-1.3-4.1-3.1-5.3-5.5s-1.9-5.2-1.9-8.5v0c0-3.3,0.6-6.1,1.9-8.4s3-4.2,5.3-5.5s4.9-1.9,8-1.9
				s5.7,0.6,8,1.9s4,3,5.2,5.3s1.8,5,1.8,8v2.9h-25.3v-5.9h20.7L241,33v-3.8c0-1.5-0.2-2.7-0.7-3.8c-0.5-1-1.1-1.8-2-2.3
				c-0.8-0.5-1.8-0.8-2.9-0.8s-2.1,0.3-2.9,0.8c-0.8,0.5-1.5,1.3-2,2.4s-0.7,2.3-0.7,3.7v3.9c0,1.4,0.2,2.7,0.7,3.7
				c0.5,1,1.2,1.8,2,2.4c0.9,0.5,1.9,0.8,3.2,0.8c1.1,0,2-0.2,2.7-0.5c0.7-0.3,1.3-0.7,1.8-1.2c0.4-0.5,0.7-0.9,0.9-1.4l0-0.1h8.9
				l-0.1,0.3c-0.2,1.1-0.7,2.2-1.3,3.3c-0.6,1.1-1.5,2.2-2.6,3.2c-1.1,1-2.6,1.8-4.3,2.4c-1.7,0.6-3.8,0.9-6.2,0.9
				C232.3,47,229.5,46.4,227.2,45.1z" />
	<path d="M251.9,6h9.9v40.3h-9.9V6z" />
	<path d="M270.2,45.7c-2.1-0.8-3.7-2-4.9-3.5s-1.8-3.2-2.1-5.2l0-0.3h9.6l0.1,0.2c0.2,1,0.8,1.8,1.6,2.4c0.8,0.6,1.9,0.9,3.4,0.9
				c0.9,0,1.6-0.1,2.3-0.3c0.6-0.2,1.1-0.5,1.5-0.9c0.3-0.4,0.5-0.8,0.5-1.3v0c0-0.7-0.3-1.2-0.8-1.6c-0.5-0.4-1.5-0.8-2.9-1l-5.4-1
				c-2-0.4-3.6-1-5-1.8c-1.4-0.8-2.4-1.8-3-3c-0.7-1.2-1-2.6-1-4.1v0c0-2,0.5-3.8,1.6-5.2s2.7-2.6,4.7-3.4c2-0.8,4.4-1.2,7.2-1.2
				c2.9,0,5.4,0.5,7.4,1.4c2,0.9,3.5,2.1,4.6,3.6s1.6,3.2,1.6,5v0.2H282l0-0.2c-0.1-0.9-0.5-1.7-1.3-2.3c-0.8-0.6-1.8-1-3.2-1
				c-0.8,0-1.5,0.1-2.1,0.3c-0.6,0.2-1.1,0.5-1.4,0.9c-0.3,0.4-0.5,0.8-0.5,1.4v0c0,0.4,0.1,0.8,0.3,1.1c0.2,0.3,0.6,0.6,1.2,0.9
				c0.6,0.2,1.3,0.5,2.3,0.7l5.3,1.1c3.3,0.6,5.6,1.6,7.1,2.9c1.5,1.3,2.2,3.1,2.2,5.4v0c0,2.1-0.6,3.9-1.8,5.4
				c-1.2,1.5-2.8,2.7-4.9,3.6c-2.1,0.8-4.6,1.3-7.3,1.3C274.8,47,272.3,46.6,270.2,45.7z" />
	<path d="M307,44.8c-1.7-1.5-2.6-3.9-2.6-7.3V23.2h-4.1v-7.3h4.1v-7h9.9v7h5.4v7.3h-5.4v12.9c0,1.3,0.3,2.2,0.9,2.8
				c0.6,0.5,1.5,0.8,2.7,0.8c0.4,0,0.8,0,1,0c0.3,0,0.6-0.1,0.8-0.1v7c-0.5,0.1-1.2,0.2-2,0.3c-0.8,0.1-1.7,0.1-2.7,0.1
				C311.5,47,308.8,46.3,307,44.8z" />
	<path d="M328,45.1c-2.3-1.2-4.1-3.1-5.4-5.4c-1.3-2.4-1.9-5.2-1.9-8.6v-0.1c0-3.3,0.6-6.1,1.9-8.5s3.1-4.2,5.4-5.4
				c2.3-1.3,5.1-1.9,8.2-1.9c3.2,0,5.9,0.6,8.2,1.9c2.3,1.3,4.1,3.1,5.4,5.4s1.9,5.2,1.9,8.5v0.1c0,3.4-0.6,6.2-1.9,8.6
				c-1.3,2.4-3.1,4.2-5.4,5.4c-2.3,1.2-5.1,1.9-8.3,1.9C333.1,47,330.3,46.4,328,45.1z M339.2,38.5c0.8-0.6,1.4-1.6,1.9-2.8
				c0.4-1.2,0.7-2.8,0.7-4.5v-0.1c0-1.8-0.2-3.2-0.7-4.5c-0.5-1.2-1.1-2.2-1.9-2.8c-0.8-0.7-1.8-1-2.9-1c-1.1,0-2.1,0.3-2.9,1
				c-0.8,0.7-1.5,1.6-1.9,2.8s-0.7,2.7-0.7,4.5v0.1c0,1.8,0.2,3.3,0.7,4.5c0.4,1.2,1.1,2.2,1.9,2.8c0.8,0.6,1.8,1,2.9,1
				C337.4,39.5,338.4,39.2,339.2,38.5z" />
	<path d="M362.9,6h10.3v40.3h-10.3V6z M368,26.8h9.6c2.2,0,3.9-0.5,5.1-1.6c1.2-1.1,1.8-2.7,1.8-4.8v-0.1c0-2.1-0.6-3.7-1.8-4.8
				c-1.2-1.1-2.9-1.6-5.1-1.6H368V6h12c3,0,5.6,0.6,7.8,1.8c2.2,1.2,3.9,2.8,5.2,5c1.2,2.1,1.8,4.6,1.8,7.5v0.1
				c0,2.9-0.6,5.4-1.8,7.5c-1.2,2.1-2.9,3.8-5.2,4.9c-2.2,1.2-4.8,1.7-7.8,1.7h-12V26.8z" />
	<path d="M396.5,15.9h9.9v5.4h0.2c0.4-1.9,1.2-3.4,2.4-4.5c1.2-1,2.6-1.6,4.5-1.6c0.5,0,0.9,0,1.4,0.1s0.8,0.2,1.2,0.3v8.5
				c-0.4-0.2-0.9-0.3-1.4-0.4c-0.5-0.1-1.1-0.1-1.7-0.1c-1.4,0-2.6,0.3-3.5,0.8c-1,0.5-1.7,1.2-2.2,2.2c-0.5,1-0.7,2.2-0.7,3.6v16.2
				h-9.9V15.9z" />
	<path d="M418.1,11.2c-1-1-1.5-2.1-1.5-3.4c0-1.3,0.5-2.5,1.5-3.5c1-1,2.2-1.4,3.6-1.4c1.4,0,2.6,0.5,3.6,1.4s1.5,2.1,1.5,3.5
				c0,1.3-0.5,2.5-1.5,3.4s-2.2,1.5-3.6,1.5C420.3,12.7,419.1,12.2,418.1,11.2z M416.8,15.9h9.9v30.4h-9.9V15.9z" />
	<path d="M429.2,15.9h9.9v5.4h0.2c0.8-1.9,1.9-3.4,3.5-4.4c1.5-1,3.5-1.6,5.8-1.6c3.4,0,5.9,1,7.8,3c1.8,2,2.7,4.8,2.7,8.5v19.6
				h-9.9V28.9c0-1.7-0.4-3.1-1.2-4.1c-0.8-1-2-1.5-3.7-1.5c-1,0-1.9,0.2-2.7,0.7c-0.8,0.5-1.4,1.2-1.8,2c-0.4,0.9-0.6,1.9-0.6,3
				v17.3h-9.9V15.9z" />
	<path d="M466.5,44.8c-1.7-1.5-2.6-3.9-2.6-7.3V23.2h-4.1v-7.3h4.1v-7h9.9v7h5.4v7.3h-5.4v12.9c0,1.3,0.3,2.2,0.9,2.8
				c0.6,0.5,1.5,0.8,2.7,0.8c0.4,0,0.8,0,1,0c0.3,0,0.6-0.1,0.8-0.1v7c-0.5,0.1-1.2,0.2-2,0.3c-0.8,0.1-1.7,0.1-2.7,0.1
				C470.9,47,468.2,46.3,466.5,44.8z" />
	<path d="M486.8,45.7c-2.1-0.8-3.7-2-4.9-3.5s-1.8-3.2-2.1-5.2l0-0.3h9.6l0.1,0.2c0.2,1,0.8,1.8,1.6,2.4c0.8,0.6,1.9,0.9,3.4,0.9
				c0.9,0,1.6-0.1,2.3-0.3c0.6-0.2,1.1-0.5,1.5-0.9c0.3-0.4,0.5-0.8,0.5-1.3v0c0-0.7-0.3-1.2-0.8-1.6c-0.5-0.4-1.5-0.8-2.9-1l-5.4-1
				c-2-0.4-3.6-1-5-1.8c-1.4-0.8-2.4-1.8-3-3c-0.7-1.2-1-2.6-1-4.1v0c0-2,0.5-3.8,1.6-5.2s2.7-2.6,4.7-3.4c2-0.8,4.4-1.2,7.2-1.2
				c2.9,0,5.4,0.5,7.4,1.4c2,0.9,3.5,2.1,4.6,3.6s1.6,3.2,1.6,5v0.2h-9.1l0-0.2c-0.1-0.9-0.5-1.7-1.3-2.3c-0.8-0.6-1.8-1-3.2-1
				c-0.8,0-1.5,0.1-2.1,0.3c-0.6,0.2-1.1,0.5-1.4,0.9c-0.3,0.4-0.5,0.8-0.5,1.4v0c0,0.4,0.1,0.8,0.3,1.1c0.2,0.3,0.6,0.6,1.2,0.9
				c0.6,0.2,1.3,0.5,2.3,0.7l5.3,1.1c3.3,0.6,5.6,1.6,7.1,2.9c1.5,1.3,2.2,3.1,2.2,5.4v0c0,2.1-0.6,3.9-1.8,5.4
				c-1.2,1.5-2.8,2.7-4.9,3.6c-2.1,0.8-4.6,1.3-7.3,1.3C491.4,47,488.9,46.6,486.8,45.7z" />
</svg>
