<svg xmlns="http://www.w3.org/2000/svg" viewBox="0 0 1920 1080">
    <path fill="#1d2424" d="M0 1.09h1920v1080H0z"/>
    <path d="M1248.13 283h-448a32 32 0 00-32 32v96h160v-64h192v320h128a32 32 0 0032-32V315a32 32 0 00-32-32zm-376 103a9 9 0 01-9 9h-30a9 9 0 01-9-9v-30a9 9 0 019-9h30a9 9 0 019 9zm352 208a9 9 0 01-9 9h-30a9 9 0 01-9-9v-30a9 9 0 019-9h30a9 9 0 019 9zm0-104a9 9 0 01-9 9h-30a9 9 0 01-9-9v-30a9 9 0 019-9h30a9 9 0 019 9zm0-104a9 9 0 01-9 9h-30a9 9 0 01-9-9v-30a9 9 0 019-9h30a9 9 0 019 9z" 
    style="isolation:isolate" fill="#878888" opacity=".4"/>
    <path d="M1056.13 443h-384a32 32 0 00-32 32v288a32 32 0 0032 32h384a32 32 0 0032-32V475a32 32 0 00-32-32zm-320 64a32 32 0 11-32 32 32 32 0 0132-32zm288 224h-320v-32l64-64 32 32 128-128 96 96z" 
    fill="#fff"/>
</svg>